<svg xmlns="http://www.w3.org/2000/svg" viewBox="0 0 512 512" width="512" height="512" role="img" aria-label="GharKhata"><defs>
  <linearGradient id="bg" x1="0" y1="0" x2="1" y2="1"><stop offset="0" stop-color="#6366f1"/><stop offset="0.55" stop-color="#4f46e5"/><stop offset="1" stop-color="#7c3aed"/></linearGradient>
  <radialGradient id="glow" cx="0.22" cy="0.12" r="0.85"><stop offset="0" stop-color="#ffffff" stop-opacity="0.25"/><stop offset="1" stop-color="#ffffff" stop-opacity="0"/></radialGradient>
  <filter id="sh" x="-20%" y="-20%" width="140%" height="150%"><feDropShadow dx="0" dy="10" stdDeviation="11" flood-color="#1e1b4b" flood-opacity="0.35"/></filter>
  <mask id="cut" maskUnits="userSpaceOnUse" x="0" y="0" width="512" height="512">
    <rect width="512" height="512" fill="#fff"/>
    <g fill="none" stroke="#000" stroke-width="21" stroke-linecap="round" stroke-linejoin="round" transform="translate(256 321) scale(1.08) translate(-256 -334)">
      <path d="M212 286H300"/><path d="M212 310H300"/>
      <path d="M226 286H256C292 286 292 334 256 334H226"/><path d="M226 334L282 382"/>
    </g>
  </mask>
</defs>
  <rect width="512" height="512" rx="116" fill="url(#bg)"/><rect width="512" height="512" rx="116" fill="url(#glow)"/>
  <g transform="translate(256 256) scale(1) translate(-256 -256)" filter="url(#sh)"><polygon points="256,116 400,242 368,242 368,400 144,400 144,242 112,242" fill="#fff" stroke="#fff" stroke-width="26" stroke-linejoin="round" mask="url(#cut)"/></g>
</svg>